<svg xmlns="http://www.w3.org/2000/svg" height="1024" width="1024" viewBox="0 0 33 33" role="img"><path fill="#FFFFFF" d="M0,0 h33v33H0z" shape-rendering="crispEdges"></path><path fill="#000000" d="M2 2h7v1H2zM11 2h4v1H11zM17 2h2v1H17zM20 2h3v1H20zM24,2 h7v1H24zM2 3h1v1H2zM8 3h1v1H8zM13 3h2v1H13zM24 3h1v1H24zM30,3 h1v1H30zM2 4h1v1H2zM4 4h3v1H4zM8 4h1v1H8zM10 4h1v1H10zM12 4h3v1H12zM16 4h1v1H16zM18 4h1v1H18zM22 4h1v1H22zM24 4h1v1H24zM26 4h3v1H26zM30,4 h1v1H30zM2 5h1v1H2zM4 5h3v1H4zM8 5h1v1H8zM10 5h1v1H10zM12 5h1v1H12zM14 5h1v1H14zM18 5h2v1H18zM24 5h1v1H24zM26 5h3v1H26zM30,5 h1v1H30zM2 6h1v1H2zM4 6h3v1H4zM8 6h1v1H8zM10 6h2v1H10zM15 6h3v1H15zM21 6h2v1H21zM24 6h1v1H24zM26 6h3v1H26zM30,6 h1v1H30zM2 7h1v1H2zM8 7h1v1H8zM10 7h2v1H10zM15 7h5v1H15zM24 7h1v1H24zM30,7 h1v1H30zM2 8h7v1H2zM10 8h1v1H10zM12 8h1v1H12zM14 8h1v1H14zM16 8h1v1H16zM18 8h1v1H18zM20 8h1v1H20zM22 8h1v1H22zM24,8 h7v1H24zM10 9h1v1H10zM15 9h1v1H15zM17 9h1v1H17zM20 9h3v1H20zM2 10h1v1H2zM4 10h5v1H4zM11 10h2v1H11zM16 10h2v1H16zM19 10h3v1H19zM24 10h5v1H24zM2 11h2v1H2zM13 11h2v1H13zM17 11h5v1H17zM24 11h3v1H24zM30,11 h1v1H30zM4 12h5v1H4zM10 12h5v1H10zM19 12h1v1H19zM22 12h2v1H22zM25 12h2v1H25zM2 13h3v1H2zM7 13h1v1H7zM9 13h6v1H9zM16 13h1v1H16zM18 13h1v1H18zM21 13h1v1H21zM24 13h4v1H24zM29 13h1v1H29zM3 14h2v1H3zM8 14h2v1H8zM13 14h2v1H13zM19 14h2v1H19zM22 14h1v1H22zM27 14h2v1H27zM3 15h2v1H3zM7 15h1v1H7zM9 15h1v1H9zM12 15h2v1H12zM15 15h3v1H15zM20 15h7v1H20zM30,15 h1v1H30zM2 16h1v1H2zM7 16h3v1H7zM11 16h2v1H11zM15 16h6v1H15zM22 16h2v1H22zM27 16h2v1H27zM2 17h2v1H2zM5 17h3v1H5zM9 17h1v1H9zM11 17h1v1H11zM13 17h3v1H13zM17 17h2v1H17zM22 17h1v1H22zM26 17h1v1H26zM29 17h1v1H29zM2 18h2v1H2zM5 18h1v1H5zM8 18h1v1H8zM11 18h1v1H11zM13 18h1v1H13zM16 18h2v1H16zM19 18h2v1H19zM23 18h1v1H23zM25 18h1v1H25zM27 18h2v1H27zM2 19h1v1H2zM7 19h1v1H7zM9 19h1v1H9zM12 19h1v1H12zM18 19h9v1H18zM28 19h1v1H28zM30,19 h1v1H30zM2 20h1v1H2zM6 20h4v1H6zM11 20h4v1H11zM17 20h1v1H17zM19 20h1v1H19zM22 20h1v1H22zM24 20h2v1H24zM28 20h1v1H28zM2 21h1v1H2zM4 21h2v1H4zM9 21h4v1H9zM14 21h1v1H14zM16 21h1v1H16zM21 21h5v1H21zM29 21h1v1H29zM2 22h1v1H2zM6 22h3v1H6zM10 22h2v1H10zM13 22h1v1H13zM17 22h3v1H17zM22 22h5v1H22zM28,22 h3v1H28zM10 23h2v1H10zM15 23h2v1H15zM18 23h3v1H18zM22 23h1v1H22zM26,23 h5v1H26zM2 24h7v1H2zM12 24h6v1H12zM21 24h2v1H21zM24 24h1v1H24zM26 24h3v1H26zM2 25h1v1H2zM8 25h1v1H8zM10 25h1v1H10zM12 25h2v1H12zM15 25h1v1H15zM21 25h2v1H21zM26 25h1v1H26zM2 26h1v1H2zM4 26h3v1H4zM8 26h1v1H8zM10 26h3v1H10zM14 26h1v1H14zM16 26h2v1H16zM19 26h1v1H19zM22 26h5v1H22zM28 26h2v1H28zM2 27h1v1H2zM4 27h3v1H4zM8 27h1v1H8zM10 27h1v1H10zM13 27h1v1H13zM18 27h1v1H18zM20 27h2v1H20zM27,27 h4v1H27zM2 28h1v1H2zM4 28h3v1H4zM8 28h1v1H8zM10 28h1v1H10zM12 28h3v1H12zM16 28h3v1H16zM24 28h6v1H24zM2 29h1v1H2zM8 29h1v1H8zM14 29h1v1H14zM16 29h3v1H16zM22 29h2v1H22zM27 29h1v1H27zM29 29h1v1H29zM2 30h7v1H2zM10 30h2v1H10zM13 30h3v1H13zM19 30h1v1H19zM21 30h1v1H21zM23 30h1v1H23zM25 30h1v1H25zM28 30h1v1H28z" shape-rendering="crispEdges"></path></svg>